<?xml version="1.0"?>
<svg xmlns="http://www.w3.org/2000/svg" xmlns:xlink="http://www.w3.org/1999/xlink" xmlns:svgjs="http://svgjs.com/svgjs" version="1.1" width="512" height="512" x="0" y="0" viewBox="0 0 512.105 512.105" style="enable-background:new 0 0 512 512" xml:space="preserve" class=""><circle r="256.0525" cx="256.0525" cy="256.0525" fill="#cbcecf" shape="circle" transform="matrix(0.94,0,0,0.94,15.36314941406252,15.36314941406252)"/><g transform="matrix(0.7,1.7145055188062944e-16,-1.7145055188062944e-16,0.7,76.81560316085827,76.81589469909659)">
<g xmlns="http://www.w3.org/2000/svg">
	<path style="" d="M512.052,440.333c-0.32,7.14-2.35,14.22-6.12,20.74c-8.23,14.26-22.97,22.77-39.43,22.77h-420.9   c-16.46,0-31.2-8.51-39.43-22.77c-8.23-14.25-8.23-31.27,0-45.53l210.45-364.51c8.19-14.18,22.81-22.68,39.17-22.77h0.26   c16.46,0,31.2,8.51,39.43,22.77l210.45,364.51c3.77,6.52,5.8,13.61,6.12,20.75C512.122,437.643,512.122,438.982,512.052,440.333z" fill="#3c3a41" data-original="#57555c" class=""/>
	<path style="" d="M512.052,436.292v4.04c-0.32,7.14-2.35,14.22-6.12,20.74c-8.23,14.26-22.97,22.77-39.43,22.77   h-210.71V28.263h0.26c16.46,0,31.2,8.51,39.43,22.77l210.45,364.51C509.703,422.063,511.732,429.152,512.052,436.292z" fill="#3c3a41" data-original="#3c3a41" class=""/>
	<polygon style="" points="441.443,423.842 70.662,423.842 255.792,103.183 256.052,102.732  " fill="#ffe55c" data-original="#ffdb2d" class=""/>
	<polygon style="" points="441.443,423.842 255.792,423.842 255.792,103.183 256.052,102.732  " fill="#ffe55c" data-original="#fec000" class=""/>
	<rect x="237.783" y="207.772" style="" width="36.54" height="122.2" fill="#3c3a41" data-original="#57555c" class=""/>
	<rect x="237.783" y="353.003" style="" width="36.54" height="34.11" fill="#3c3a41" data-original="#57555c" class=""/>
	<rect x="255.792" y="207.772" style="" width="18.53" height="122.2" fill="#3c3a41" data-original="#3c3a41" class=""/>
	<rect x="255.792" y="353.003" style="" width="18.53" height="34.11" fill="#3c3a41" data-original="#3c3a41" class=""/>
</g>















</g></svg>
